<svg width="507" height="507" viewBox="0 0 507 507" fill="none" xmlns="http://www.w3.org/2000/svg">
<path d="M385.771 314.678C382.954 314.678 380.588 312.65 380.137 309.721C374.166 262.514 333.719 226.911 286.173 226.911C283.019 226.911 280.54 224.432 280.54 221.278V199.42C280.54 196.266 283.019 193.787 286.173 193.787C289.328 193.787 291.807 196.266 291.807 199.42V215.87C342.507 218.574 384.869 257.444 391.291 308.369C391.742 311.411 389.489 314.228 386.447 314.678H385.771ZM121.905 314.678H121.229C118.187 314.228 115.934 311.411 116.385 308.369C122.919 257.444 165.169 218.574 215.869 215.87V199.42C215.869 196.266 218.348 193.787 221.503 193.787C224.657 193.787 227.136 196.266 227.136 199.42V221.39C227.136 224.545 224.657 227.024 221.503 227.024C173.957 227.024 133.51 262.626 127.539 309.834C127.088 312.65 124.609 314.678 121.905 314.678Z" fill="#738F93"/>
<path d="M253.839 259.809C228.714 259.809 205.392 248.43 189.844 228.6C187.929 226.122 188.379 222.629 190.858 220.714C193.337 218.798 196.829 219.249 198.745 221.728C212.152 238.853 232.207 248.655 253.839 248.655C275.471 248.655 295.638 238.853 308.933 221.728C310.848 219.249 314.341 218.798 316.819 220.714C319.298 222.629 319.749 226.122 317.833 228.6C302.285 248.43 278.963 259.809 253.839 259.809ZM380.927 503.282H126.751C111.879 503.282 99.8232 491.226 99.8232 476.354V460.694C99.8232 454.497 104.893 449.427 111.09 449.427H396.587C402.784 449.427 407.854 454.497 407.854 460.694V476.354C407.854 491.226 395.799 503.282 380.927 503.282ZM396.587 460.694H110.977V476.354C110.977 485.03 117.963 492.015 126.638 492.015H380.814C389.489 492.015 396.475 485.03 396.475 476.354V460.694H396.587Z" fill="#738F93"/>
<path d="M375.744 460.695C372.589 460.695 370.11 458.216 370.11 455.061C370.11 451.907 372.589 449.428 375.744 449.428C379.687 449.428 380.814 444.245 381.039 443.231L404.361 318.847C404.361 318.622 404.586 317.833 403.685 316.819C402.671 315.58 400.756 314.679 399.066 314.679H108.498C106.808 314.679 105.006 315.58 103.879 316.819C102.978 317.833 103.203 318.622 103.203 318.847L126.525 443.231C126.75 444.245 127.877 449.428 131.82 449.428C134.975 449.428 137.454 451.907 137.454 455.061C137.454 458.216 134.975 460.695 131.82 460.695C123.596 460.695 117.286 454.611 115.484 445.259L92.1616 320.875C91.373 316.932 92.4996 312.876 95.2036 309.609C98.3583 305.778 103.428 303.412 108.498 303.412H399.066C404.136 303.412 409.206 305.778 412.36 309.609C415.064 312.876 416.191 316.932 415.402 320.875L392.08 445.259C390.278 454.611 383.968 460.695 375.744 460.695Z" fill="#738F93"/>
<path d="M253.838 414.725C235.811 414.725 221.277 400.078 221.277 382.052C221.277 364.025 235.924 349.378 253.838 349.378C271.752 349.378 286.398 364.025 286.398 382.052C286.398 400.078 271.752 414.725 253.838 414.725ZM253.838 360.758C242.12 360.758 232.544 370.334 232.544 382.164C232.544 393.994 242.12 403.571 253.838 403.571C265.555 403.571 275.132 393.994 275.132 382.164C275.132 370.334 265.555 360.758 253.838 360.758ZM253.838 213.84C215.306 213.84 183.984 182.519 183.984 143.987V121.679C183.984 121.341 183.984 121.003 184.097 120.778C188.829 92.7237 206.405 64.1064 235.135 63.4304C266.344 62.6417 285.835 55.431 285.948 55.431C286.736 55.093 287.75 54.9804 288.539 55.093C316.931 58.3604 323.128 114.13 323.691 120.44V144.1C323.691 182.519 292.37 213.84 253.838 213.84ZM195.138 122.13V143.987C195.138 176.322 221.39 202.574 253.725 202.574C286.06 202.574 312.312 176.322 312.312 143.987V121.116C310.96 107.483 303.749 69.8524 288.201 66.3597C282.906 68.1624 263.752 73.9084 235.135 74.5844C210.01 75.2604 198.18 104.554 195.138 122.13Z" fill="#738F93"/>
<path d="M189.505 127.313C186.914 127.313 184.661 125.623 183.985 123.031C183.083 119.539 175.647 88.1048 178.351 75.2608C179.591 69.5148 169.451 62.7548 164.606 60.5015C163.029 59.7128 161.789 58.2481 161.451 56.4455C161.113 54.6428 161.564 52.8401 162.803 51.4881C164.493 49.5728 204.828 5.85813 248.768 5.29479C266.006 5.06946 281.329 11.4915 294.511 24.4481C299.355 25.0115 309.946 27.2648 318.283 37.6301C331.578 53.9668 333.268 82.4715 323.353 122.243C322.565 125.285 319.523 127.087 316.593 126.299C313.551 125.51 311.749 122.468 312.537 119.426C323.691 74.3595 317.044 53.8541 309.608 44.6155C302.172 35.3768 292.37 35.4895 292.257 35.4895C290.68 35.4895 289.103 34.9261 287.976 33.7995C276.822 22.1948 263.64 16.3361 248.993 16.5615C218.235 17.0121 187.815 42.9255 176.211 53.9668C182.858 58.4735 191.646 66.6981 189.393 77.4015C187.703 85.2881 191.871 107.821 194.913 120.215C195.702 123.257 193.787 126.299 190.745 126.975C190.407 127.2 189.956 127.313 189.505 127.313Z" fill="#738F93"/>
</svg>
