<svg xmlns="http://www.w3.org/2000/svg" viewBox="0 0 1893.7 206.7"><defs><style>.cls-1{fill:#39424e;}.cls-2{fill:#32c766;}</style></defs><title>HR_Logo</title><g id="Layer_2" data-name="Layer 2"><g id="Layer_1-2" data-name="Layer 1"><path class="cls-1" d="M145.3.1H101a3.12,3.12,0,0,0-3.1,3.1V75.7H50.5V3.2A3.12,3.12,0,0,0,47.4.1H3.1A3.12,3.12,0,0,0,0,3.2V199.8a3.12,3.12,0,0,0,3.1,3.1H47.3a3.12,3.12,0,0,0,3.1-3.1V120.9H97.8v78.9a3.12,3.12,0,0,0,3.1,3.1h44.4a3.12,3.12,0,0,0,3.1-3.1V3.2A3.12,3.12,0,0,0,145.3.1Z"/><path class="cls-1" d="M252.5,43.5a122.65,122.65,0,0,0-37.9,5.9A184.67,184.67,0,0,0,181,64.1a3.1,3.1,0,0,0-1.2,4.2l15.7,28.9a3.13,3.13,0,0,0,4.2,1.3A181.86,181.86,0,0,1,223,88.6,64.14,64.14,0,0,1,243.8,85c9.5,0,16.6,1.7,21.2,5.1a18.13,18.13,0,0,1,7,10.5,304.41,304.41,0,0,0-42.2,5.4c-12.7,2.8-23.3,6.5-31.5,11-8.4,4.7-14.6,10.5-18.5,17.3S174,149.1,174,158a49.5,49.5,0,0,0,3.7,19,47.48,47.48,0,0,0,10.5,15.3,46.26,46.26,0,0,0,16.5,10.3,61.13,61.13,0,0,0,21.6,3.7,74.69,74.69,0,0,0,29.3-6.1,122.91,122.91,0,0,0,22.7-12.8l2.5,12.8a3.11,3.11,0,0,0,3.1,2.5h36.2a3.12,3.12,0,0,0,3.1-3.1V114c0-23.7-6.4-41.6-19.1-53.3C291.4,49.3,274.1,43.5,252.5,43.5Zm20.1,109.8a82.51,82.51,0,0,1-14.8,8.8,41,41,0,0,1-17.4,3.8c-5.8,0-10.4-1-13.6-3-2.8-1.7-4.1-4.3-4.1-8a14.07,14.07,0,0,1,2.1-7.4c1.4-2.3,4-4.4,7.6-6.2a64.14,64.14,0,0,1,16.4-5,198.8,198.8,0,0,1,23.7-2.8v19.8Z"/><path class="cls-1" d="M483.1,151.7a3.45,3.45,0,0,0-2.1-1.4,3,3,0,0,0-2.4.5,83.37,83.37,0,0,1-17.2,9.6,52.77,52.77,0,0,1-20.5,4c-11.7,0-20.9-3.5-28.1-10.5s-10.7-16.5-10.7-28.8,3.6-21.7,11.1-28.8,17.2-10.6,29.2-10.6c10.3,0,20.9,3.8,31.3,11.2a3.06,3.06,0,0,0,4.3-.7l20.5-27.4a3.1,3.1,0,0,0-.4-4.2,85.68,85.68,0,0,0-24.9-15.1c-19.4-7.8-45.3-7.9-67.1-.5a86.59,86.59,0,0,0-28.6,15.8,77.27,77.27,0,0,0-19.8,25.6c-4.9,10.1-7.4,21.8-7.4,34.7s2.2,24.5,6.6,34.6a72.82,72.82,0,0,0,18.4,25.7,81,81,0,0,0,27.4,15.8,102.55,102.55,0,0,0,33.9,5.5,108.17,108.17,0,0,0,32.8-5.4A92.75,92.75,0,0,0,500.5,184a3.1,3.1,0,0,0,.6-4.1Z"/><path class="cls-1" d="M625.4,112l55-59.6a3.14,3.14,0,0,0-2.3-5.3H629.6a3.26,3.26,0,0,0-2.3,1l-50.6,54.2V3.1A3.12,3.12,0,0,0,573.6,0H529.3a3.12,3.12,0,0,0-3.1,3.1V199.7a3.12,3.12,0,0,0,3.1,3.1h44.3a3.12,3.12,0,0,0,3.1-3.1V163.9l18.6-18.1,36.8,55.6a3.14,3.14,0,0,0,2.6,1.4h47.9a3.29,3.29,0,0,0,2.8-1.7,3.07,3.07,0,0,0-.2-3.2Z"/><path class="cls-1" d="M823.5,65h0a62.75,62.75,0,0,0-23.1-15.9c-9.2-3.8-19.8-5.7-31.6-5.7A83.82,83.82,0,0,0,738.6,49a78.59,78.59,0,0,0-44,41.8c-4.5,10-6.8,21.5-6.8,34.1,0,12.9,2.3,24.4,6.8,34.4A77,77,0,0,0,713,184.9a78.44,78.44,0,0,0,27.3,16,101.62,101.62,0,0,0,33.6,5.5,109.74,109.74,0,0,0,31.6-4.8,112,112,0,0,0,29.1-13.2,3.19,3.19,0,0,0,1.1-4.1l-14.4-26.4a3.13,3.13,0,0,0-4.2-1.3,103.46,103.46,0,0,1-18.6,7.5,70.22,70.22,0,0,1-18.6,2.4c-10.4,0-19.3-2.4-26.6-7.2-6.3-4.1-10.5-10.4-12.9-19.1h96.8a3.19,3.19,0,0,0,3.1-2.5c.4-1.9.8-4.5,1.3-8a99.46,99.46,0,0,0,.6-11.4,90.77,90.77,0,0,0-4.7-29.5A70,70,0,0,0,823.5,65Zm-83.7,41.5c1.9-7.3,5.3-12.9,10.2-16.5a32.15,32.15,0,0,1,19.7-6.5c9.2,0,15.9,2.4,19.9,7a27.56,27.56,0,0,1,6.1,15.9H739.8Z"/><path class="cls-1" d="M1011.2,49.8a64.32,64.32,0,0,0-30.3-6.3,70.57,70.57,0,0,0-35.3,9.3c-9,5.1-17,12.6-23.9,22.2l-2.8-25.1a3.13,3.13,0,0,0-3.1-2.8H879.6a3.12,3.12,0,0,0-3.1,3.1V199.7a3.12,3.12,0,0,0,3.1,3.1h44.3a3.12,3.12,0,0,0,3.1-3.1V122.6c6.1-12.5,13.3-21.4,21.5-26.4,8.4-5.1,17-7.7,25.7-7.7a71.1,71.1,0,0,1,13.4,1,115.26,115.26,0,0,1,12.2,3.1,3.17,3.17,0,0,0,2.5-.3,3.1,3.1,0,0,0,1.5-2l9-37.1A2.71,2.71,0,0,0,1011.2,49.8Z"/><path class="cls-1" d="M1151.9,122.5a62.14,62.14,0,0,0,23.5-20.6c6.8-9.8,10.2-22.4,10.2-37.5,0-12.1-2.1-22.4-6.4-30.7a53.08,53.08,0,0,0-17.5-20,72.33,72.33,0,0,0-25.2-10.6A143.37,143.37,0,0,0,1106.4,0h-69.6a3.12,3.12,0,0,0-3.1,3.1V199.7a3.12,3.12,0,0,0,3.1,3.1h44.3a3.12,3.12,0,0,0,3.1-3.1V132h18.2l36.8,69.2a3.16,3.16,0,0,0,2.8,1.7h49.7a3.15,3.15,0,0,0,2.7-1.6,2.89,2.89,0,0,0,0-3.1Zm-49-32h-18.6V41.6h18.6c11.2,0,19.7,1.8,25.1,5.2,5.1,3.2,7.6,9,7.6,17.5C1135.6,82.2,1125.2,90.5,1102.9,90.5Z"/><path class="cls-1" d="M1282.1,43.5a122.65,122.65,0,0,0-37.9,5.9,184.67,184.67,0,0,0-33.6,14.7,3.1,3.1,0,0,0-1.2,4.2l15.7,28.9a3.13,3.13,0,0,0,4.2,1.3,181.86,181.86,0,0,1,23.3-9.9,64.14,64.14,0,0,1,20.8-3.6c9.5,0,16.6,1.7,21.2,5.1a18.13,18.13,0,0,1,7,10.5,304.41,304.41,0,0,0-42.2,5.4c-12.7,2.8-23.3,6.5-31.5,11-8.4,4.7-14.6,10.5-18.5,17.3s-5.8,14.8-5.8,23.7a49.5,49.5,0,0,0,3.7,19,47.48,47.48,0,0,0,10.5,15.3,46.26,46.26,0,0,0,16.5,10.3,61.13,61.13,0,0,0,21.6,3.7,74.69,74.69,0,0,0,29.3-6.1,122.91,122.91,0,0,0,22.7-12.8l2.5,12.8a3.11,3.11,0,0,0,3.1,2.5h36.2a3.12,3.12,0,0,0,3.1-3.1V114c0-23.7-6.4-41.6-19.1-53.3C1321.1,49.3,1303.8,43.5,1282.1,43.5Zm20.1,109.8a82.51,82.51,0,0,1-14.8,8.8,41,41,0,0,1-17.4,3.8c-5.8,0-10.4-1-13.6-3-2.8-1.7-4.1-4.3-4.1-8a14.07,14.07,0,0,1,2.1-7.4c1.4-2.3,4-4.4,7.6-6.2a64.14,64.14,0,0,1,16.4-5,198.8,198.8,0,0,1,23.7-2.8v19.8Z"/><path class="cls-1" d="M1480.7,43.5c-11.7,0-22.1,2.5-30.9,7.3a107,107,0,0,0-19.6,14l-2.5-15a3.2,3.2,0,0,0-3.1-2.6h-36.2a3.12,3.12,0,0,0-3.1,3.1V199.8a3.12,3.12,0,0,0,3.1,3.1h44.3a3.12,3.12,0,0,0,3.1-3.1V101.3a68.87,68.87,0,0,1,13.1-10.4,28.32,28.32,0,0,1,14.3-3.5c7.1,0,12,1.9,14.6,5.6,2.8,4.1,4.3,10.9,4.3,20.2v86.5a3.12,3.12,0,0,0,3.1,3.1h44.3a3.12,3.12,0,0,0,3.1-3.1V107.5c0-19.5-4.2-35.1-12.4-46.5C1512,49.4,1498.6,43.5,1480.7,43.5Z"/><path class="cls-1" d="M1724.5,198l-59.8-86,55-59.6a3.14,3.14,0,0,0-2.3-5.3h-48.5a3.26,3.26,0,0,0-2.3,1L1616,102.3V3.1a3.12,3.12,0,0,0-3.1-3.1h-44.3a3.12,3.12,0,0,0-3.1,3.1V199.7a3.12,3.12,0,0,0,3.1,3.1h44.3a3.12,3.12,0,0,0,3.1-3.1V163.9l18.6-18.1,36.7,55.7a3.14,3.14,0,0,0,2.6,1.4h47.9a3.29,3.29,0,0,0,2.8-1.7A3.07,3.07,0,0,0,1724.5,198Z"/><path class="cls-2" d="M1890.6,202.9a3.12,3.12,0,0,0,3.1-3.1V3.2a3.12,3.12,0,0,0-3.1-3.1H1748.3a3.12,3.12,0,0,0-3.1,3.1V199.8a3.12,3.12,0,0,0,3.1,3.1Z"/></g></g></svg>