<svg width="507" height="507" viewBox="0 0 507 507" fill="none" xmlns="http://www.w3.org/2000/svg">
<g clip-path="url(#clip0_1673_9461)">
<mask id="mask0_1673_9461" style="mask-type:luminance" maskUnits="userSpaceOnUse" x="0" y="0" width="507" height="507">
<path d="M507 0H0V507H507V0Z" fill="white"/>
</mask>
<g mask="url(#mask0_1673_9461)">
<path d="M461.475 358.174L466.757 318.354C467.158 315.354 466.91 312.303 466.029 309.408C465.149 306.512 463.656 303.84 461.653 301.571C459.65 299.303 457.183 297.491 454.419 296.259C451.655 295.027 448.658 294.403 445.632 294.43H346.027V276.843C362.611 270.531 377.274 260.026 388.585 246.354C399.896 232.683 407.469 216.311 410.564 198.839H418.222C423.407 198.829 428.481 197.34 432.849 194.547C437.217 191.754 440.698 187.772 442.883 183.07C445.067 178.368 445.865 173.141 445.183 168.001C444.5 162.861 442.366 158.023 439.03 154.054C444.333 152.531 448.913 149.154 451.937 144.539C454.96 139.923 456.225 134.375 455.502 128.905C454.779 123.435 452.116 118.407 447.998 114.735C443.879 111.063 438.579 108.992 433.062 108.899H423.398C422.495 79.4563 410.052 51.5493 388.755 31.1995C367.457 10.8497 339.013 -0.311073 309.56 0.125631C280.106 0.562333 252.006 12.5614 231.321 33.5337C210.637 54.5058 199.027 82.7697 198.997 112.226V144.495C191.903 144.924 185.258 148.113 180.486 153.379C175.713 158.646 173.191 165.571 173.46 172.674C173.729 179.776 176.768 186.491 181.926 191.381C187.083 196.271 193.95 198.948 201.057 198.839H208.715C211.81 216.311 219.382 232.683 230.694 246.354C242.005 260.026 256.668 270.531 273.252 276.843V294.43H176.658C173.631 294.403 170.635 295.027 167.87 296.259C165.106 297.491 162.639 299.303 160.636 301.571C158.633 303.84 157.141 306.512 156.26 309.408C155.38 312.303 155.131 315.354 155.533 318.354L160.814 357.963C155.533 369.423 156.589 368.526 136.362 500.925C136.247 501.681 136.298 502.456 136.511 503.193C136.724 503.925 137.095 504.606 137.598 505.183C138.1 505.761 138.722 506.225 139.421 506.535C140.119 506.85 140.877 507.009 141.643 507H480.593C481.359 507.009 482.119 506.85 482.814 506.535C483.513 506.225 484.138 505.761 484.64 505.183C485.142 504.606 485.513 503.925 485.725 503.193C485.94 502.456 485.987 501.681 485.875 500.925C466.017 369.688 467.179 371.166 461.475 358.174ZM418.222 188.276H411.937C412.36 183.418 412.254 182.678 412.254 154.952H418.38C420.647 154.824 422.917 155.16 425.049 155.94C427.182 156.72 429.133 157.926 430.783 159.486C432.433 161.046 433.748 162.926 434.646 165.011C435.544 167.096 436.008 169.343 436.008 171.614C436.008 173.885 435.544 176.131 434.646 178.217C433.748 180.302 432.433 182.182 430.783 183.742C429.133 185.302 427.182 186.508 425.049 187.288C422.917 188.068 420.647 188.404 418.38 188.276H418.222ZM432.851 119.62C436.156 119.62 439.327 120.933 441.664 123.271C444.002 125.608 445.315 128.779 445.315 132.084C445.315 135.39 444.002 138.56 441.664 140.897C439.327 143.235 436.156 144.548 432.851 144.548H304.2C326.938 128.293 354.2 119.575 382.151 119.62H432.851ZM235.121 132.454H284.342V144.389H235.121V132.454ZM235.438 121.891C236.373 116.121 239.33 110.873 243.782 107.085C248.233 103.297 253.887 101.217 259.732 101.217C265.576 101.217 271.231 103.297 275.681 107.085C280.133 110.873 283.091 116.121 284.025 121.891H235.438ZM209.56 112.226C209.546 85.5427 220.024 59.9237 238.733 40.8968C257.441 21.8701 282.88 10.9615 309.56 10.5249C336.24 10.0881 362.022 20.1584 381.344 38.5626C400.664 56.9667 411.975 82.2293 412.835 108.899H382.151C352.27 108.829 323.108 118.057 298.707 135.306L294.905 137.946V127.173C294.905 117.844 291.199 108.898 284.603 102.301C278.007 95.7047 269.06 91.9994 259.732 91.9994C250.403 91.9994 241.457 95.7047 234.86 102.301C228.264 108.898 224.558 117.844 224.558 127.173V144.389H209.56V112.226ZM201.057 188.276C198.79 188.404 196.52 188.068 194.388 187.288C192.256 186.508 190.305 185.302 188.654 183.742C187.004 182.182 185.69 180.302 184.791 178.217C183.893 176.131 183.43 173.885 183.43 171.614C183.43 169.343 183.893 167.096 184.791 165.011C185.69 162.926 187.004 161.046 188.654 159.486C190.305 157.926 192.256 156.72 194.388 155.94C196.52 155.16 198.79 154.824 201.057 154.952H207.183C207.183 181.358 207.183 183.312 207.5 188.276H201.057ZM219.488 198.839C217.376 188.276 217.746 182.995 217.746 154.952H401.375V181.094C401.358 203.911 392.854 225.905 377.516 242.798C362.179 259.691 341.105 270.274 318.396 272.487C295.687 274.701 272.967 268.387 254.655 254.774C236.344 241.161 223.752 221.223 219.33 198.839H219.488ZM283.814 280.276C300.755 284.633 318.523 284.633 335.465 280.276V294.43H327.437C305.678 289.624 304.094 289.148 327.437 294.43H293.743C303.619 292.211 309.217 290.891 309.587 290.891H308.742C290.205 295.011 295.855 294.324 283.656 294.324L283.814 280.276ZM176.658 304.992H446.001C447.517 304.978 449.018 305.291 450.402 305.908C451.786 306.526 453.021 307.434 454.023 308.572C455.025 309.709 455.771 311.048 456.209 312.499C456.648 313.95 456.769 315.478 456.564 316.981C450.438 362.928 457.62 309.111 436.653 466.387H186.111L166.148 316.875C165.96 315.386 166.092 313.873 166.535 312.439C166.978 311.005 167.721 309.681 168.716 308.557C169.71 307.432 170.933 306.533 172.302 305.918C173.672 305.303 175.156 304.988 176.658 304.992ZM164.722 386.218C178.083 486.19 176.182 463.905 176.182 496.438H147.875L164.722 386.218ZM186.745 476.951H220.756V496.438H186.745V476.951ZM231.318 496.438V476.951H391.235V496.438H231.318ZM401.797 496.438V476.951H435.756V496.438H401.797ZM446.318 496.438C446.318 463.641 444.417 485.875 457.778 386.112L474.627 496.438H446.318Z" fill="#738F93"/>
<path d="M51.5243 119.537L37.4295 133.632C37.2462 133.815 37.2462 134.113 37.4295 134.296L51.5243 148.391" fill="#738F93"/>
<path d="M98.9268 119.537L113.022 133.632C113.205 133.815 113.205 134.113 113.022 134.296L98.9268 148.391" fill="#738F93"/>
<path d="M82.716 123.771L65.9512 144.157Z" fill="#738F93"/>
<path d="M181.622 244.945L155.216 215.054C154.156 213.881 153.572 212.356 153.579 210.775V94.2711C153.579 89.756 151.789 85.4253 148.601 82.2275C145.414 79.0301 141.088 77.2265 136.573 77.2129H17.0584C12.5343 77.2129 8.19537 79.0099 4.9963 82.2092C1.79722 85.408 0 89.7471 0 94.2711V246.371C0 250.895 1.79722 255.234 4.9963 258.433C8.19537 261.632 12.5343 263.43 17.0584 263.43H173.225C175.368 263.432 177.465 262.817 179.267 261.658C181.068 260.499 182.498 258.846 183.384 256.895C184.27 254.945 184.575 252.78 184.263 250.661C183.95 248.541 183.034 246.557 181.622 244.945ZM10.5625 246.371V94.2711C10.5763 92.5525 11.2651 90.9085 12.4804 89.6931C13.6956 88.4777 15.3399 87.789 17.0584 87.7754H136.784C138.498 87.789 140.137 88.4796 141.344 89.6964C142.551 90.9132 143.227 92.5576 143.227 94.2711V210.775C143.29 214.847 144.808 218.763 147.506 221.814C175.232 253.501 173.912 251.758 173.912 252.286C173.912 252.814 185.425 252.656 17.2169 252.656C15.5066 252.685 13.853 252.043 12.6094 250.869C11.3659 249.695 10.6312 248.08 10.5625 246.371Z" fill="#738F93"/>
<path d="M110.906 195.829H109.11V190.125C109.11 175.813 89.5696 171.271 89.5696 181.147C89.5696 182.548 90.1259 183.891 91.1165 184.881C92.1065 185.872 93.4501 186.428 94.8509 186.428C95.8311 186.428 96.7714 186.818 97.4648 187.511C98.1581 188.204 98.5478 189.145 98.5478 190.125V211.831C98.5543 212.321 98.4642 212.807 98.2816 213.262C98.099 213.717 97.8276 214.13 97.4835 214.479C97.1394 214.828 96.7296 215.105 96.2775 215.294C95.8259 215.483 95.3405 215.581 94.8509 215.58C93.4501 215.58 92.1065 216.137 91.1165 217.127C90.1259 218.118 89.5696 219.461 89.5696 220.862C89.5696 230.632 109.11 226.143 109.11 211.831V206.391H110.906C112.306 206.391 113.65 205.835 114.64 204.844C115.63 203.854 116.187 202.511 116.187 201.11C116.187 199.71 115.63 198.366 114.64 197.375C113.65 196.385 112.306 195.829 110.906 195.829ZM48.3759 190.125C48.3759 189.145 48.7651 188.204 49.4584 187.511C50.1518 186.818 51.0921 186.428 52.0728 186.428C53.4731 186.428 54.8167 185.872 55.8072 184.881C56.7973 183.891 57.354 182.548 57.354 181.147C57.354 171.377 37.8132 175.865 37.8132 190.125V195.723H36.0176C34.6169 195.723 33.2736 196.28 32.2832 197.27C31.2928 198.26 30.7363 199.604 30.7363 201.004C30.7363 202.405 31.2928 203.749 32.2832 204.739C33.2736 205.729 34.6169 206.285 36.0176 206.285H37.8132V211.831C37.8132 226.196 57.354 230.685 57.354 220.862C57.354 219.461 56.7973 218.118 55.8072 217.127C54.8167 216.137 53.4731 215.58 52.0728 215.58C51.5827 215.581 51.0977 215.483 50.6457 215.294C50.1936 215.105 49.7838 214.828 49.4397 214.479C49.0955 214.13 48.8247 213.717 48.6416 213.262C48.459 212.807 48.3688 212.321 48.3759 211.831V190.125ZM79.5353 187.59L60.0472 207.13C59.0637 208.12 58.5117 209.459 58.5117 210.854C58.5117 212.249 59.0637 213.588 60.0472 214.577C61.0368 215.561 62.3752 216.113 63.7704 216.113C65.1656 216.113 66.5044 215.561 67.494 214.577L87.0346 195.089C88.0289 194.095 88.5876 192.746 88.5876 191.34C88.5876 189.933 88.0289 188.585 87.0346 187.59C86.0399 186.596 84.6912 186.037 83.2847 186.037C81.8783 186.037 80.5295 186.596 79.5353 187.59Z" fill="#738F93"/>
</g>
</g>
<defs>
<clipPath id="clip0_1673_9461">
<rect width="507" height="507" fill="white"/>
</clipPath>
</defs>
</svg>
