<svg width="507" height="507" viewBox="0 0 507 507" fill="none" xmlns="http://www.w3.org/2000/svg">
<path d="M4.75678e-07 374.895C0.305357 374.041 0.838903 373.376 0.881636 372.682C1.46588 363.184 5.09056 354.789 9.93153 346.763C12.5225 342.468 15.7744 338.815 19.1171 335.101C23.3895 330.355 28.4791 326.762 33.6283 323.273C36.6281 321.24 40.3386 320.193 43.8164 318.944C48.5135 317.259 53.2879 315.786 58.0414 314.261C61.5793 313.125 65.1401 312.061 68.6847 310.946C73.5987 309.4 78.5066 307.835 83.418 306.281C87.0993 305.116 90.8008 304.012 94.4595 302.78C98.973 301.261 103.43 299.571 107.954 298.084C110.587 297.218 113.326 296.68 115.976 295.858C119.558 294.747 123.13 293.587 126.63 292.248C127.303 291.99 127.964 290.844 128.041 290.051C128.242 287.958 128.224 285.826 128.068 283.726C128.015 283.02 127.445 282.059 126.835 281.732C120.772 278.489 116.259 273.34 111.499 268.661C107.955 265.177 104.63 261.198 102.543 256.396C100.522 251.745 97.7586 247.411 95.817 242.733C94.566 239.718 94.5395 236.207 93.3739 233.143C91.6638 228.647 92.2938 224.04 91.8667 219.482C91.7861 218.621 90.4951 217.161 89.8158 217.191C86.7889 217.324 84.9462 215.055 82.619 213.923C78.3207 211.832 75.5674 207.962 74.5772 203.404C73.9033 200.301 74.0431 196.816 74.7091 193.691C75.2761 191.032 76.9187 188.516 78.4434 186.169C80.1232 183.584 78.651 181.31 78.1285 179.008C77.3287 175.484 76.4415 172.018 75.8287 168.424C74.6558 161.545 75.2901 154.72 75.1869 147.884C75.119 143.392 75.4772 138.841 76.1869 134.403C76.9394 129.698 77.9506 124.96 79.5408 120.482C81.6964 114.412 84.2559 108.449 87.1373 102.688C88.8719 99.2195 91.4378 96.1372 93.8306 93.0364C96.31 89.8233 98.8875 86.6604 101.68 83.72C106.433 78.7137 111.212 73.7062 117.154 70.0166C119.837 68.3506 122.493 66.6303 125.052 64.7834C125.677 64.3324 126.176 63.2992 126.211 62.5109C126.347 59.3872 125.94 56.2088 126.358 53.1354C127.012 48.3238 127.425 43.264 129.286 38.881C132.299 31.783 136.334 25.1211 142.892 20.4437C145.106 18.8652 147.011 16.8612 149.158 15.1791C149.902 14.5957 150.967 14.437 151.853 14.0157C154.478 12.7668 156.984 11.1595 159.726 10.2836C164.892 8.63335 170.154 7.27936 175.698 7.5845C178.74 7.75192 181.85 7.26433 184.839 7.69389C189.562 8.3725 194.383 9.09111 198.839 10.6923C203.145 12.2391 207.359 14.4973 211.027 17.2297C214.62 19.9061 217.691 23.3929 220.586 26.8625C223.074 29.8448 225.306 33.1407 227.091 36.5883C230.442 43.0619 232.273 50.0212 231.385 57.3753C230.793 62.2821 232.358 65.198 236.918 67.6882C242.287 70.6201 247.1 74.6666 251.394 79.1792C254.871 82.8329 258.621 86.2465 261.879 90.0814C264.3 92.9297 266.349 96.1592 268.164 99.4399C270.775 104.159 273.183 109.008 275.363 113.941C276.565 116.659 277.154 119.652 277.963 122.537C278.956 126.078 279.89 129.636 280.849 133.187C280.951 133.562 281.12 133.932 281.146 134.313C281.488 139.267 282.066 144.222 282.092 149.179C282.199 169.442 282.142 189.706 282.121 209.969C282.12 211.128 282.144 212.375 281.75 213.429C280.104 217.836 276.968 219.198 272.468 217.548C269.588 216.493 266.757 215.303 263.882 214.232C261.151 213.216 258.391 212.277 255.23 211.158C255.114 212.491 254.963 213.598 254.934 214.708C254.886 216.506 255.068 218.323 254.873 220.101C254.669 221.966 254.095 223.788 253.764 225.643C253.587 226.635 253.606 227.661 253.497 228.667C252.915 234.046 252.035 239.342 249.604 244.272C247.732 248.069 246.259 252.09 244.109 255.715C241.86 259.508 239.091 263.005 236.404 266.52C234.624 268.848 232.695 271.087 230.633 273.167C229.173 274.64 227.449 275.888 225.713 277.041C223.953 278.21 222.853 279.552 222.961 281.804C223.084 284.381 222.999 286.967 223.005 289.548C223.009 291.035 223.594 292.03 225.121 292.505C228.937 293.693 232.697 295.063 236.527 296.199C242.223 297.887 247.796 299.702 253.96 299.692C332.745 299.56 411.531 299.618 490.316 299.588C497.682 299.585 502.197 303.852 505.782 309.529C506.467 310.614 506.421 312.16 506.856 313.593C507 314.192 507 314.693 506.938 315.565C506.761 317.097 506.544 318.259 506.544 319.42C506.526 363.77 506.525 408.12 506.549 452.469C506.549 453.78 506.843 455.091 507 456.402C507 456.755 507 457.107 506.853 457.731C506.494 458.728 506.332 459.473 506.058 460.174C505.43 461.784 505.034 463.597 504.009 464.909C502.927 466.294 503.279 467.109 504.011 468.371C504.878 469.865 505.397 471.561 506.08 473.163C506.369 473.843 506.692 474.508 507 475.18C507 478.789 507 482.398 506.857 486.324C506.394 487.884 506.344 489.292 505.708 490.346C502.261 496.049 497.734 499.666 490.47 499.657C398.159 499.555 305.848 499.571 213.538 499.659C209.595 499.662 206.367 498.425 203.587 495.985C200.545 493.314 199.111 489.586 198.183 485.749C197.811 484.207 197.145 483.606 195.669 483.641C194.653 483.665 193.635 483.631 192.618 483.631C130.817 483.63 69.016 483.631 7.2147 483.628C2.75145 483.628 1.98952 483.138 0.456953 479.154C0.465349 445.976 0.473645 413.015 0.451199 380.055C0.450308 378.746 0.157039 377.437 0 376.127C4.69444e-07 375.775 4.75678e-07 375.423 4.75678e-07 374.895ZM214.215 472.83C213.208 473.532 211.459 474.116 211.326 474.956C210.8 478.275 210.562 481.685 210.701 485.04C210.746 486.127 212.085 487.737 213.162 488.083C215.478 488.829 218.008 489.218 220.451 489.219C308.518 489.272 396.586 489.264 484.654 489.262C485.67 489.262 486.75 489.464 487.692 489.194C490.25 488.46 493.747 488.799 494.356 485.246C494.82 482.533 494.851 479.62 494.386 476.914C494.035 474.87 492.902 472.684 489.702 472.658C488.616 472.56 487.53 472.374 486.444 472.374C397.06 472.361 307.676 472.36 218.291 472.38C217.057 472.38 215.822 472.647 214.215 472.83ZM494.8 443.962C494.8 402.261 494.802 360.559 494.796 318.857C494.795 313.181 492.477 310.875 486.837 310.875C397.488 310.875 308.138 310.875 218.788 310.876C217.771 310.876 216.741 310.792 215.742 310.929C215.018 311.029 214.273 311.328 213.647 311.715C210.976 313.365 210.271 315.869 210.275 318.902C210.323 363.576 210.307 408.251 210.308 452.926C210.308 453.708 210.224 454.506 210.347 455.27C210.715 457.552 211.232 459.797 214.019 460.306C215.755 460.623 217.51 461.067 219.257 461.068C308.137 461.105 397.017 461.1 485.897 461.099C486.758 461.099 487.631 461.179 488.477 461.063C492.543 460.507 494.772 458.963 494.792 454.525C494.807 451.16 494.798 447.796 494.8 443.962ZM215.713 269.523C218.98 266.815 222.335 264.203 225.467 261.347C226.56 260.35 227 258.672 227.926 257.447C229.069 255.934 230.727 254.741 231.605 253.11C234.692 247.369 238.632 242.03 239.765 235.34C240.495 231.032 242.069 226.845 242.571 222.524C243.064 218.279 242.835 213.924 242.6 209.635C242.513 208.047 241.955 205.922 240.832 205.067C238.346 203.175 235.39 201.887 232.579 200.442C230.878 199.568 229.016 198.995 227.358 198.054C224.323 196.332 221.375 194.455 218.412 192.61C214.442 190.139 210.442 187.712 206.549 185.125C203.46 183.072 200.498 180.825 197.504 178.631C193.05 175.367 188.551 172.157 184.202 168.756C181.955 166.999 180.032 164.831 177.888 162.934C175.389 160.723 172.757 158.662 170.286 156.422C169.149 155.393 168.304 154.049 167.246 152.924C164.013 149.489 160.739 146.091 157.483 142.678C155.349 140.441 153.252 137.572 149.717 138.8C145.247 140.353 140.597 141.19 136.304 143.601C131.162 146.488 125.676 148.541 120.749 152.119C115.555 155.891 112.085 160.678 109.034 165.924C107.243 169.003 106.018 172.499 105.074 175.954C104.351 178.597 104.402 181.465 104.226 184.24C104.035 187.258 102.48 190.109 100.26 190.519C98.4388 190.855 96.5181 190.617 94.6453 190.708C90.0882 190.929 88.0222 192.222 86.6255 196.376C85.5382 199.61 86.9369 202.674 89.8064 204.445C92.3651 206.024 95.0248 206.23 97.854 206.205C101.435 206.174 104.106 208.867 104.218 212.465C104.453 220.017 103.9 227.502 106.33 235.021C108.671 242.266 111.564 249.124 116.158 255.025C120.042 260.013 124.692 264.477 129.414 268.715C132.24 271.251 135.713 273.201 139.155 274.883C143.595 277.054 148.221 278.912 152.905 280.496C156.896 281.845 161.033 283.097 165.194 283.517C170.304 284.034 175.514 283.81 180.666 283.577C183.413 283.452 186.163 282.772 188.848 282.09C191.724 281.361 194.519 280.316 197.36 279.443C204.031 277.393 210 274.053 215.713 269.523ZM261.675 112.866C261.309 112.474 260.852 112.135 260.591 111.683C258.364 107.816 256.287 103.856 253.925 100.075C252.559 97.8879 250.903 95.8284 249.104 93.9771C245.931 90.7117 242.691 87.4829 239.218 84.5472C235.445 81.3579 231.421 78.4557 227.406 75.5682C226.188 74.6922 224.592 74.361 223.247 73.637C221.219 72.5458 219.354 71.1054 217.249 70.2167C213.975 68.8348 210.627 67.5125 207.187 66.67C201.934 65.3835 196.576 64.5235 191.261 63.4945C190.652 63.3766 190.02 63.3765 189.413 63.2529C187.562 62.8765 185.733 62.2423 183.869 62.1209C180.909 61.9281 177.909 61.859 174.96 62.1194C170.792 62.4875 166.631 63.0756 162.51 63.8086C158.78 64.472 155.06 65.2939 151.421 66.3425C147.569 67.4525 143.728 68.7028 140.05 70.2832C136.876 71.6471 133.892 73.4851 130.934 75.2939C130.336 75.6593 129.74 77.0479 129.98 77.6015C132.119 82.532 134.265 87.4764 136.77 92.2263C139.131 96.7024 141.903 100.963 144.541 105.29C146.327 108.218 148.073 111.182 150.055 113.976C152.525 117.458 155.202 120.796 157.825 124.169C160.886 128.108 163.815 132.169 167.115 135.899C170.672 139.92 174.48 143.738 178.384 147.427C182.959 151.751 187.57 156.076 192.503 159.973C198.535 164.737 204.827 169.19 211.174 173.533C217.268 177.704 223.573 181.567 229.791 185.555C230.823 186.217 231.851 186.897 232.941 187.452C235.429 188.72 237.959 189.904 240.461 191.143C243.916 192.854 247.319 194.675 250.822 196.277C254.043 197.75 257.472 198.791 260.615 200.403C263.649 201.96 266.785 202.9 270.4 203.708C270.4 202.277 270.425 201.199 270.397 200.121C269.838 178.936 271.797 157.69 268.935 136.565C268.43 132.834 267.691 129.087 266.574 125.498C265.269 121.305 263.43 117.279 261.675 112.866ZM50.251 361.296C51.3977 365.671 52.7875 369.999 53.6238 374.433C54.4938 379.045 55.294 383.755 55.3213 388.427C55.4771 415.094 55.391 441.761 55.393 468.428C55.3933 472.29 55.4643 472.359 59.3501 472.36C80.9342 472.364 102.518 472.364 124.102 472.36C128.127 472.359 128.158 472.329 128.158 468.293C128.16 414.958 128.16 361.624 128.157 308.289C128.157 307.508 128.335 306.626 128.033 305.976C127.778 305.427 126.832 304.702 126.389 304.816C123.17 305.648 119.986 306.627 116.82 307.649C112.21 309.135 107.635 310.731 103.024 312.216C97.4421 314.015 91.8274 315.713 86.2495 317.525C83.7023 318.352 81.2479 319.476 78.6841 320.239C72.9038 321.959 67.0555 323.452 61.2856 325.205C57.4633 326.366 53.7742 327.97 49.9438 329.098C45.1532 330.51 41.0263 333.059 36.7703 335.808C38.9169 339.27 40.7992 342.625 42.9914 345.765C46.2513 350.433 48.1848 355.69 50.251 361.296ZM198.099 428.94C198.099 419.006 198.099 409.073 198.099 399.139C198.099 389.128 198.106 379.116 198.097 369.104C198.087 359.259 198.141 349.413 198.057 339.144C177.936 345.221 159.104 342.486 140.358 334.784C140.358 336.266 140.358 337.037 140.358 337.808C140.358 381.453 140.357 425.098 140.362 468.743C140.363 472.188 140.528 472.355 143.931 472.357C161.217 472.365 178.503 472.364 195.789 472.357C198.495 472.356 201.834 469.251 201.979 466.589C201.997 466.253 201.751 465.858 201.531 465.562C198.881 461.995 198.066 457.926 198.087 453.578C198.128 445.522 198.099 437.466 198.099 428.94ZM43.1899 453.351C42.7475 428.449 44.2061 403.522 42.2097 378.644C42.025 376.342 41.7965 373.921 40.9415 371.818C38.7132 366.339 38.0047 360.204 34.0438 355.455C33.8657 355.242 33.9139 354.854 33.7778 354.588C33.043 353.152 32.3538 351.685 31.5134 350.311C30.5954 348.811 29.4249 347.46 28.5601 345.933C27.8155 344.618 26.9709 344.406 26.027 345.458C24.7511 346.879 23.764 348.567 22.4481 349.945C18.8834 353.678 17.0341 358.496 15.3759 363.066C13.4574 368.354 12.4228 374.228 12.3358 379.868C12.0015 401.528 12.1997 423.197 12.2007 444.862C12.201 453.075 12.2324 461.288 12.188 469.5C12.1776 471.427 12.8085 472.387 14.8873 472.375C23.4124 472.322 31.9381 472.323 40.4632 472.375C42.507 472.388 43.2256 471.505 43.2031 469.541C43.1431 464.302 43.1872 459.061 43.1899 453.351ZM92.8726 119.519C91.5999 124.284 90.1696 129.015 89.1052 133.826C88.275 137.58 87.4953 141.424 87.4047 145.245C87.2037 153.723 86.7647 162.253 88.3472 170.657C88.8778 173.474 90.0325 176.175 90.9019 178.929C91.1496 178.882 91.3974 178.836 91.6451 178.789C92.3338 176.108 93.0059 173.423 93.7148 170.747C95.2636 164.901 97.9357 159.599 101.479 154.714C101.872 154.172 101.969 153.343 102.452 152.95C105.909 150.138 108.184 146.233 112.065 143.671C115.789 141.213 119.317 138.433 123.362 136.502C127.813 134.377 132.327 132.37 136.899 130.522C139.361 129.526 142 128.971 144.894 128.119C144.153 126.786 143.749 125.872 143.181 125.075C141.794 123.132 140.207 121.323 138.926 119.317C136.149 114.971 133.468 110.561 130.832 106.127C128.268 101.816 125.771 97.4638 123.333 93.0799C122.702 91.9438 122.527 90.5582 121.925 89.4002C121.043 87.7049 119.966 86.1116 118.972 84.4749C117.562 85.3682 115.967 86.0667 114.783 87.1969C112.555 89.3245 110.409 91.5787 108.512 94.0018C105.39 97.9882 102.218 101.982 99.5826 106.288C97.0743 110.386 95.2249 114.887 92.8726 119.519ZM199.996 309.28C202.003 305.096 204.861 301.867 209.457 300.376C210.061 300.18 210.668 298.983 210.703 298.223C210.844 295.181 210.782 292.129 210.74 289.08C210.732 288.522 210.469 287.967 210.211 286.978C199.128 292.186 187.84 294.899 175.805 295.025C163.794 295.151 152.222 293.454 140.804 289.291C140.646 289.878 140.398 290.372 140.397 290.867C140.373 300.404 140.344 309.941 140.444 319.477C140.452 320.266 141.202 321.426 141.916 321.765C146.369 323.878 150.808 326.097 155.451 327.705C159.372 329.063 163.527 330.185 167.64 330.451C176.327 331.012 185.108 331.071 193.551 328.52C197.909 327.204 198.136 328.435 198.102 323.048C198.087 320.781 197.894 318.488 198.166 316.254C198.443 313.984 199.193 311.772 199.996 309.28ZM140.781 57.4071C166.883 48.1278 192.961 48.4006 218.933 58.2345C219.718 52.2895 218.957 47.3706 214.971 39.9092C211.07 32.6064 205.32 27.2697 198.029 23.6264C194.327 21.7765 190.435 19.6296 186.451 19.1734C179.598 18.3888 172.475 17.9652 165.857 20.7471C160.855 22.8499 155.663 24.5228 151.667 28.7611C148.039 32.6105 144.076 36.1325 141.844 41.0145C140.698 43.5235 140.46 46.5016 139.084 48.8393C137.244 51.9668 138.371 54.9611 138.147 58.2779C139.178 57.9799 139.836 57.7895 140.781 57.4071Z" fill="#738F93"/>
<path d="M507 456.184C506.843 455.093 506.549 453.782 506.548 452.471C506.524 408.121 506.526 363.771 506.543 319.422C506.544 318.26 506.76 317.099 506.938 315.754C507 362.368 507 409.166 507 456.184Z" fill="#738F93"/>
<path d="M0.456953 479.154C0.45144 479.371 0.226704 479.401 0.113352 479.403C4.82673e-07 445.126 4.69444e-07 410.847 0 376.348C0.157039 377.437 0.450308 378.746 0.451199 380.055C0.473645 413.015 0.465349 445.976 0.456953 479.154Z" fill="#738F93"/>
<path d="M465.22 113.24C471.401 113.24 477.364 112.976 483.287 113.343C486.701 113.555 490.24 114.339 493.387 115.663C498.37 117.759 501.436 121.936 503.724 126.813C504.94 129.405 505.142 131.974 505.139 134.714C505.112 164.054 505.273 193.396 505.01 222.734C504.953 229.096 502.007 234.591 495.997 237.836C494.117 238.851 492.364 240.268 490.364 240.849C487.95 241.551 485.335 241.823 482.807 241.828C452.371 241.89 421.936 241.866 391.5 241.868C387.805 241.868 388.194 241.994 387.13 245.511C385.788 249.946 384.759 254.639 381.203 258.115C380.395 258.905 380.073 260.172 379.33 261.052C375.282 265.848 370.386 269.497 364.472 271.702C362.448 272.457 358.453 270.749 357.509 268.526C356.886 267.062 356.276 265.383 356.388 263.853C356.746 258.983 354.768 254.598 353.464 250.185C352.337 246.369 348.948 243.984 344.88 242.781C339.258 241.118 333.553 242.052 327.891 241.921C323.344 241.815 319.737 239.9 316.011 237.531C311.542 234.69 309.439 230.566 307.978 225.856C307.662 224.835 307.509 223.722 307.508 222.651C307.484 192.607 307.493 162.563 307.486 132.518C307.484 123.79 315.233 115.798 323.152 114.291C326.936 113.571 330.856 113.289 334.715 113.283C378.138 113.215 421.562 113.24 465.22 113.24ZM459.352 124.507C417.498 124.507 375.645 124.493 333.791 124.546C331.428 124.55 329.029 124.953 326.71 125.459C322.749 126.323 319.231 130.892 319.23 134.943C319.221 163.341 319.223 191.739 319.232 220.137C319.232 220.993 319.071 221.995 319.443 222.681C321.679 226.814 324.239 231.012 330.46 230.641C334.124 230.422 337.863 230.222 341.474 230.707C345.14 231.2 348.816 231.454 352.447 232.969C358.948 235.683 362.585 240.675 365.236 246.639C366.456 249.382 366.902 252.468 367.763 255.634C368.206 255.333 368.962 255.089 369.249 254.581C371.547 250.508 374.595 246.88 375.251 241.9C375.689 238.577 377.187 235.455 380.172 233.257C382.749 231.359 385.531 230.597 388.639 230.597C419.306 230.602 449.972 230.588 480.639 230.62C483.219 230.623 485.755 230.688 487.95 229.049C490.453 227.18 492.943 225.41 492.937 221.711C492.89 192.452 492.916 163.194 492.895 133.935C492.894 133.022 492.863 131.963 492.425 131.22C490.019 127.139 486.796 124.384 481.647 124.475C474.374 124.605 467.097 124.508 459.352 124.507Z" fill="#738F93"/>
<path d="M489.882 472.718C489.203 472.795 488.343 472.831 487.483 472.831C397.287 472.833 307.09 472.833 216.894 472.832C216.269 472.832 215.643 472.819 214.802 472.801C215.821 472.647 217.056 472.381 218.291 472.38C307.675 472.361 397.059 472.362 486.443 472.375C487.529 472.375 488.615 472.56 489.882 472.718Z" fill="#738F93"/>
<path d="M360.458 384.408C359.537 388.113 358.638 391.623 357.742 395.133C356.814 398.766 355.866 402.395 354.97 406.036C354.435 408.208 354.034 410.414 353.475 412.579C353.057 414.193 352.412 415.748 351.994 417.362C351.318 419.977 350.757 422.622 350.124 425.248C349.512 427.792 346.045 429.896 342.983 429.608C340.206 429.347 337.829 426.992 338.092 424.089C338.347 421.285 339.24 418.534 339.899 415.771C340.635 412.688 341.405 409.612 342.193 406.542C343.11 402.969 344.09 399.413 344.99 395.836C345.535 393.667 345.939 391.462 346.486 389.294C346.898 387.661 347.51 386.078 347.905 384.442C348.9 380.315 349.756 376.154 350.79 372.037C352.097 366.834 353.39 361.621 354.936 356.487C356.727 350.542 361.652 350.515 365.554 353.326C367.503 354.73 367.386 357.332 366.891 359.607C366.482 361.485 365.888 363.323 365.384 365.18C364.787 367.384 364.175 369.584 363.614 371.798C363.048 374.031 362.556 376.283 361.996 378.517C361.518 380.423 360.988 382.315 360.458 384.408Z" fill="#738F93"/>
<path d="M382.374 385.736C378.78 382.289 375.257 379.005 371.848 375.607C370.43 374.193 369.165 372.6 367.995 370.97C366.94 369.5 369.244 365.667 371.157 364.873C375.2 363.194 377.773 365.102 380.448 367.832C384.788 372.262 389.403 376.421 393.9 380.697C396.429 383.101 399.023 385.442 401.457 387.94C402.967 389.489 402.659 392.185 400.766 394.064C397.571 397.235 394.247 400.276 390.994 403.388C387.07 407.142 383.043 410.799 379.286 414.714C376.322 417.803 369.719 417.472 367.963 411.809C367.81 411.316 368.17 410.615 368.408 410.06C370.662 404.792 375.389 401.718 379.26 397.886C381.47 395.699 383.687 393.519 385.937 391.375C386.943 390.416 386.664 389.574 385.817 388.782C384.738 387.774 383.603 386.827 382.374 385.736Z" fill="#738F93"/>
<path d="M336.585 370.839C336.181 371.905 335.983 372.981 335.344 373.598C329.913 378.834 324.422 384.007 318.901 389.148C317.707 390.259 317.676 391.075 318.883 392.199C324.414 397.35 329.853 402.598 335.408 407.723C337.352 409.516 336.884 411.789 336.242 413.552C335.779 414.823 333.858 416.025 332.38 416.37C329.061 417.144 326.326 415.857 324.316 412.969C323.582 411.915 322.4 411.178 321.441 410.276C316.13 405.282 310.83 400.277 305.517 395.285C302.308 392.269 302.308 389.059 305.548 386.056C311.521 380.516 317.479 374.961 323.483 369.455C325.227 367.856 326.874 365.776 328.966 365.01C333.412 363.383 336.562 365.961 336.585 370.839Z" fill="#738F93"/>
<path d="M102.811 361.105C102.813 358.369 102.783 355.868 102.826 353.367C102.873 350.588 104.437 349.285 107.109 348.862C112.47 348.015 114.994 352.278 115.019 356.541C115.103 371.233 115.087 385.926 115.018 400.619C115.004 403.645 114.205 406.467 111.04 407.839C106.676 409.731 102.85 407.334 102.834 402.604C102.787 388.849 102.814 375.094 102.811 361.105Z" fill="#738F93"/>
<path d="M114.987 329.977C114.918 332.856 115.548 335.573 113.685 338.057C112.024 340.271 109.307 341.876 107.235 341.295C104.15 340.43 102.852 338.643 102.821 335.15C102.802 333.04 102.767 330.927 102.849 328.82C102.937 326.563 104.492 325.295 106.705 324.942C110.871 324.278 113.314 326.282 114.987 329.977Z" fill="#738F93"/>
<path d="M421.561 139.99C430.711 139.995 439.626 139.962 448.541 140.022C452.615 140.049 455.124 142.701 454.865 146.479C454.687 149.069 451.862 151.732 449.269 151.732C420.411 151.733 391.553 151.733 362.696 151.729C359.511 151.729 356.29 149.228 356.359 146.646C356.455 143.008 358.375 140.386 362.439 140.031C363.448 139.943 364.471 139.992 365.487 139.992C384.1 139.99 402.713 139.99 421.561 139.99Z" fill="#738F93"/>
<path d="M450.198 164.406C459.811 164.407 469.19 164.398 478.569 164.413C481.689 164.418 484.217 166.692 484.548 169.722C484.802 172.04 481.951 175.305 479.365 175.615C478.67 175.698 477.96 175.67 477.257 175.67C454.747 175.673 432.238 175.687 409.729 175.639C408.295 175.635 406.814 175.289 405.439 174.844C403.277 174.144 401.626 171.334 401.946 169.251C402.374 166.468 404.592 164.419 407.289 164.417C421.513 164.402 435.738 164.407 450.198 164.406Z" fill="#738F93"/>
<path d="M449.477 193.199C447.985 195.39 445.722 195.797 443.616 195.81C427.055 195.912 410.492 195.879 393.93 195.855C391.328 195.852 389.092 194.758 387.968 192.424C386.709 189.811 387.338 187.239 389.548 185.311C390.283 184.67 391.439 184.183 392.404 184.179C410.06 184.113 427.716 184.114 445.372 184.146C449.334 184.153 451.777 188.356 450.016 191.965C449.845 192.315 449.718 192.686 449.477 193.199Z" fill="#738F93"/>
<path d="M338.472 184.125C350.577 184.125 362.448 184.121 374.319 184.127C377.702 184.128 379.161 185.033 379.691 187.415C380.439 190.769 379.281 193.693 376.531 194.91C375.361 195.428 374.025 195.831 372.762 195.838C360.267 195.906 347.771 195.919 335.276 195.86C330.558 195.838 327.626 192.074 328.745 187.527C329.24 185.514 330.434 184.038 332.85 184.123C334.644 184.186 336.442 184.128 338.472 184.125Z" fill="#738F93"/>
<path d="M460.525 214.64C451.691 214.639 443.093 214.652 434.494 214.631C430.699 214.622 429.071 213.055 429.08 209.533C429.089 205.957 430.721 204.328 434.438 204.324C449.212 204.308 463.987 204.309 478.761 204.325C481.748 204.328 484.303 206.724 484.328 209.446C484.352 212.14 481.759 214.617 478.817 214.629C472.798 214.654 466.779 214.639 460.525 214.64Z" fill="#738F93"/>
<path d="M358.467 172.329C358.327 171.378 358.207 170.602 358.204 169.827C358.192 166.575 359.795 164.551 363.047 164.501C372.335 164.357 381.626 164.411 390.915 164.462C392.885 164.473 394.72 166.593 394.795 168.604C394.981 173.63 393.03 175.665 387.984 175.67C380.49 175.679 372.99 175.507 365.503 175.752C362.422 175.853 360.337 174.711 358.467 172.329Z" fill="#738F93"/>
<path d="M387.354 214.637C384.738 214.932 382.941 214.388 382.075 211.772C381.226 209.209 381.751 207.02 383.334 205.029C383.681 204.593 384.518 204.355 385.13 204.353C394.966 204.313 404.804 204.372 414.64 204.297C417.509 204.275 419.901 207.484 419.994 209.797C420.082 211.98 417.048 214.601 414.511 214.612C405.534 214.651 396.556 214.633 387.354 214.637Z" fill="#738F93"/>
<path d="M353.022 204.311C358.649 204.312 364.04 204.289 369.431 204.324C373.328 204.35 374.617 205.675 374.616 209.504C374.615 213.258 373.272 214.611 369.355 214.624C360.291 214.652 351.227 214.65 342.164 214.624C338.688 214.615 337.083 212.831 337.07 209.118C337.06 205.911 338.719 204.349 342.239 204.321C345.755 204.293 349.272 204.312 353.022 204.311Z" fill="#738F93"/>
<path d="M466.635 184.127C471.003 184.13 475.138 184.097 479.273 184.148C482.121 184.184 484.666 188.001 484.018 190.788C483.025 195.059 480.464 195.629 477.238 195.814C472.961 196.059 468.658 195.946 464.369 195.855C460.571 195.773 457.624 192.661 457.721 189.041C457.801 186.089 459.727 184.168 462.657 184.133C463.905 184.118 465.153 184.128 466.635 184.127Z" fill="#738F93"/>
<path d="M346.615 164.488C349.493 165.206 351.168 166.655 351.156 169.687C351.142 173.55 349.269 175.604 345.36 175.657C341.697 175.707 338.033 175.717 334.371 175.655C329.506 175.572 326.696 171.244 328.969 166.913C329.607 165.697 331.634 164.632 333.094 164.534C337.515 164.238 341.97 164.45 346.615 164.488Z" fill="#738F93"/>
<path d="M469.036 139.99C472.311 139.994 475.363 139.958 478.413 140.015C481.585 140.074 483.293 141.676 484.346 145.428C484.633 146.448 482.214 150.986 480.987 151.517C480.446 151.751 479.766 151.711 479.149 151.715C475.394 151.734 471.639 151.756 467.885 151.725C464.33 151.696 461.323 148.057 462.003 144.673C462.474 142.328 465.856 140.002 469.036 139.99Z" fill="#738F93"/>
<path d="M330.711 150.629C327.549 148.625 328.482 145.616 328.84 143.08C329.166 140.766 331.579 140.197 333.574 140.084C337.231 139.876 340.988 139.567 344.543 140.2C346.264 140.506 348.114 142.596 349.017 144.339C350.089 146.409 349.027 148.715 347.135 150.069C345.913 150.944 344.278 151.536 342.778 151.664C339.91 151.907 337.003 151.816 334.12 151.68C333.019 151.628 331.941 151.071 330.711 150.629Z" fill="#738F93"/>
</svg>
